solid OpenSCAD_Model
  facet normal 0 0.978148 0.207911
    outer loop
      vertex 80 25 3.05176e-06
      vertex 0 20.4513 21.4
      vertex 80 20.4513 21.4
    endloop
  endfacet
  facet normal 0 0.978148 0.207911
    outer loop
      vertex 0 20.4513 21.4
      vertex 80 25 3.05176e-06
      vertex 0 25 3.05176e-06
    endloop
  endfacet
  facet normal 0 -1 0
    outer loop
      vertex 0 0 21.4
      vertex 4.7 0 20
      vertex 80 0 21.4
    endloop
  endfacet
  facet normal 0 -1 0
    outer loop
      vertex 0 0 21.4
      vertex 4.7 0 1.4
      vertex 4.7 0 20
    endloop
  endfacet
  facet normal 0 -1 -0
    outer loop
      vertex 4.7 0 1.4
      vertex 0 0 3.05176e-06
      vertex 75.3 0 1.4
    endloop
  endfacet
  facet normal 0 -1 0
    outer loop
      vertex 0 0 3.05176e-06
      vertex 4.7 0 1.4
      vertex 0 0 21.4
    endloop
  endfacet
  facet normal 0 -1 0
    outer loop
      vertex 75.3 0 20
      vertex 80 0 21.4
      vertex 4.7 0 20
    endloop
  endfacet
  facet normal 0 -1 0
    outer loop
      vertex 75.3 0 1.4
      vertex 80 0 21.4
      vertex 75.3 0 20
    endloop
  endfacet
  facet normal 0 -1 0
    outer loop
      vertex 75.3 0 1.4
      vertex 80 0 3.05176e-06
      vertex 80 0 21.4
    endloop
  endfacet
  facet normal 0 -1 0
    outer loop
      vertex 80 0 3.05176e-06
      vertex 75.3 0 1.4
      vertex 0 0 3.05176e-06
    endloop
  endfacet
  facet normal 0 0 -1
    outer loop
      vertex 0 0 3.05176e-06
      vertex 80 25 3.05176e-06
      vertex 80 0 3.05176e-06
    endloop
  endfacet
  facet normal -0 0 -1
    outer loop
      vertex 80 25 3.05176e-06
      vertex 0 0 3.05176e-06
      vertex 0 25 3.05176e-06
    endloop
  endfacet
  facet normal -1 0 0
    outer loop
      vertex 0 0 3.05176e-06
      vertex 0 20.4513 21.4
      vertex 0 25 3.05176e-06
    endloop
  endfacet
  facet normal -1 -0 0
    outer loop
      vertex 0 20.4513 21.4
      vertex 0 0 3.05176e-06
      vertex 0 0 21.4
    endloop
  endfacet
  facet normal -0 0 1
    outer loop
      vertex 0 20.4513 21.4
      vertex 80 0 21.4
      vertex 80 20.4513 21.4
    endloop
  endfacet
  facet normal 0 0 1
    outer loop
      vertex 80 0 21.4
      vertex 0 20.4513 21.4
      vertex 0 0 21.4
    endloop
  endfacet
  facet normal 1 0 0
    outer loop
      vertex 80 0 3.05176e-06
      vertex 80 20.4513 21.4
      vertex 80 0 21.4
    endloop
  endfacet
  facet normal 1 0 0
    outer loop
      vertex 80 20.4513 21.4
      vertex 80 0 3.05176e-06
      vertex 80 25 3.05176e-06
    endloop
  endfacet
  facet normal 1 -0 0
    outer loop
      vertex 4.7 0 20
      vertex 4.7 12.4513 1.4
      vertex 4.7 12.4513 20
    endloop
  endfacet
  facet normal 1 0 0
    outer loop
      vertex 4.7 12.4513 1.4
      vertex 4.7 0 20
      vertex 4.7 0 1.4
    endloop
  endfacet
  facet normal 0 0 -1
    outer loop
      vertex 4.7 0 20
      vertex 75.3 12.4513 20
      vertex 75.3 0 20
    endloop
  endfacet
  facet normal -0 0 -1
    outer loop
      vertex 75.3 12.4513 20
      vertex 4.7 0 20
      vertex 4.7 12.4513 20
    endloop
  endfacet
  facet normal -1 0 0
    outer loop
      vertex 75.3 0 1.4
      vertex 75.3 12.4513 20
      vertex 75.3 12.4513 1.4
    endloop
  endfacet
  facet normal -1 -0 0
    outer loop
      vertex 75.3 12.4513 20
      vertex 75.3 0 1.4
      vertex 75.3 0 20
    endloop
  endfacet
  facet normal 0 -1 0
    outer loop
      vertex 4.7 12.4513 1.4
      vertex 75.3 12.4513 20
      vertex 4.7 12.4513 20
    endloop
  endfacet
  facet normal 0 -1 -0
    outer loop
      vertex 75.3 12.4513 20
      vertex 4.7 12.4513 1.4
      vertex 75.3 12.4513 1.4
    endloop
  endfacet
  facet normal -0 0 1
    outer loop
      vertex 4.7 12.4513 1.4
      vertex 75.3 0 1.4
      vertex 75.3 12.4513 1.4
    endloop
  endfacet
  facet normal 0 0 1
    outer loop
      vertex 75.3 0 1.4
      vertex 4.7 12.4513 1.4
      vertex 4.7 0 1.4
    endloop
  endfacet
endsolid OpenSCAD_Model
